<?xml version="1.0" standalone="no"?>
<!DOCTYPE svg PUBLIC "-//W3C//DTD SVG 20010904//EN"
 "http://www.w3.org/TR/2001/REC-SVG-20010904/DTD/svg10.dtd">
<svg version="1.0" xmlns="http://www.w3.org/2000/svg"
 width="203.000000pt" height="203.000000pt" viewBox="0 0 203.000000 203.000000"
 preserveAspectRatio="xMidYMid meet">

<g transform="translate(0.000000,203.000000) scale(0.100000,-0.100000)"
fill="#000000" stroke="none">
<path d="M1440 1897 c-172 -58 -270 -198 -270 -382 0 -220 188 -378 431 -362
160 10 252 64 309 181 27 55 31 74 31 140 0 78 -22 148 -57 187 -14 15 -14 23
-3 53 11 31 10 42 -7 83 -15 39 -28 52 -64 70 -114 56 -259 68 -370 30z m211
-223 c90 -35 103 -36 166 -18 20 5 26 0 43 -37 31 -69 27 -142 -11 -200 -37
-59 -89 -105 -143 -130 -91 -41 -234 -12 -299 60 -67 74 -96 204 -61 277 19
41 33 52 81 70 65 23 123 17 224 -22z"/>
<path d="M250 1857 c-31 -15 -37 -52 -14 -78 9 -11 48 -38 86 -61 37 -24 68
-45 68 -49 0 -3 -44 -50 -98 -105 -112 -113 -144 -169 -146 -250 0 -46 4 -58
26 -81 19 -18 36 -26 60 -25 43 1 82 44 176 195 39 61 84 128 100 147 l29 34
168 -172 c93 -95 172 -172 177 -172 16 0 7 46 -20 105 -25 53 -148 217 -212
283 l-22 23 20 22 c12 12 59 51 106 87 47 36 85 68 85 71 1 11 -152 -18 -214
-41 -33 -12 -68 -24 -78 -27 -10 -3 -38 9 -70 31 -52 36 -150 76 -184 76 -10
0 -29 -6 -43 -13z"/>
<path d="M1010 1426 l0 -386 -302 -1 c-167 -1 -341 -4 -388 -8 l-85 -6 132 -8
c72 -4 245 -7 385 -7 l253 1 3 -432 c1 -269 6 -437 12 -443 7 -7 10 141 10
435 l0 444 297 -3 c268 -3 590 5 581 14 -9 8 -169 12 -510 13 l-368 1 0 379
c0 243 -4 382 -10 386 -7 4 -10 -125 -10 -379z"/>
<path d="M383 880 c-35 -12 -90 -41 -125 -68 -53 -39 -69 -60 -102 -125 -35
-70 -40 -89 -44 -165 -3 -72 0 -97 18 -145 41 -110 112 -178 225 -217 115 -40
249 -35 355 11 165 73 229 313 124 468 -18 27 -20 38 -12 56 15 34 1 94 -30
125 -71 70 -282 101 -409 60z m185 -214 c108 -45 124 -48 174 -32 l47 14 15
-39 c9 -22 16 -66 16 -97 0 -49 -5 -67 -31 -105 -92 -139 -228 -183 -364 -118
-71 34 -96 59 -125 126 -51 118 -30 218 53 256 60 27 143 25 215 -5z"/>
<path d="M1288 839 c-29 -11 -43 -38 -34 -67 3 -9 44 -41 91 -71 47 -29 85
-55 85 -58 0 -2 -44 -47 -99 -101 -128 -126 -156 -181 -152 -293 1 -35 46 -79
81 -79 38 0 73 31 124 108 24 37 68 105 98 152 30 47 65 94 77 104 l22 20 172
-177 c95 -98 175 -177 180 -177 25 1 -18 115 -75 197 -18 26 -67 89 -110 140
l-77 92 52 47 c29 26 77 65 107 88 41 30 50 41 37 44 -25 5 -170 -25 -231 -49
-65 -24 -72 -24 -113 7 -76 58 -185 92 -235 73z"/>
</g>
</svg>
